# xmcd CD database file
#
# Track frame offsets:
#	150
#	25457
#	48155
#	70772
#	93234
#	113596
#	142578
#	163571
#	184711
#	206208
#
# Disc length: 2993 seconds
#
# Revision: 1
# Processed by: cddbd v1.5.2PL0 Copyright (c) Steve Scherf et al.
# Submitted via: CDex 1.70beta3
#
DISCID=7c0baf0a
DTITLE=とらのあな - WINTER MIX Vol.04 Disc2 BLUE VIRSION
DYEAR=2007
DGENRE=JPop
TTITLE0=真優&来兎/雪に願う月の想い
TTITLE1=みずさわゆうき/この季節こえて
TTITLE2=佳織みちる&粕谷昌一/mermaid
TTITLE3=ピクセルビー/透明
TTITLE4=結月そら/Chocolat
TTITLE5=ねこじゃらし/夜空に歌う子守唄
TTITLE6=にゃん工房/春恋桜
TTITLE7=mimei/冬贄 fuyunie
TTITLE8=Gungnir over rev/Winter again
TTITLE9=idea/雪影
EXTD=YEAR: 2007
EXTT0=
EXTT1=
EXTT2=
EXTT3=
EXTT4=
EXTT5=
EXTT6=
EXTT7=
EXTT8=
EXTT9=
PLAYORDER=
